<svg width="835" height="239" viewBox="0 0 835 239" fill="none" xmlns="http://www.w3.org/2000/svg">
<path d="M163.5 63L143.695 55.3688C105.204 40.5373 72.1768 86.6122 98.5843 118.301L137.303 164.764C158.229 189.875 140.373 228 107.685 228C71.4885 228 55.2434 182.626 83.2145 159.652L156.215 99.6941" stroke="url(#paint0_linear_1391_38)" stroke-width="12" stroke-linecap="round"/>
<path d="M175.729 79.496C177.185 79.2385 178.407 80.5955 178 82.0168L168.771 114.197C168.232 116.078 165.591 116.145 164.956 114.294L159.501 98.3671C159.329 97.8657 158.965 97.4529 158.489 97.2195L142.001 89.1322C140.264 88.2802 140.628 85.7041 142.533 85.3671L175.729 79.496Z" fill="#153885"/>
<path d="M265.52 187.91C259.453 187.91 253.993 186.87 249.14 184.79C244.287 182.623 240.473 179.59 237.7 175.69C234.927 171.79 233.54 167.24 233.54 162.04H249.4C249.747 165.94 251.263 169.147 253.95 171.66C256.723 174.173 260.58 175.43 265.52 175.43C270.633 175.43 274.62 174.217 277.48 171.79C280.34 169.277 281.77 166.07 281.77 162.17C281.77 159.137 280.86 156.667 279.04 154.76C277.307 152.853 275.097 151.38 272.41 150.34C269.81 149.3 266.17 148.173 261.49 146.96C255.597 145.4 250.787 143.84 247.06 142.28C243.42 140.633 240.3 138.12 237.7 134.74C235.1 131.36 233.8 126.853 233.8 121.22C233.8 116.02 235.1 111.47 237.7 107.57C240.3 103.67 243.94 100.68 248.62 98.6C253.3 96.52 258.717 95.48 264.87 95.48C273.623 95.48 280.773 97.69 286.32 102.11C291.953 106.443 295.073 112.423 295.68 120.05H279.3C279.04 116.757 277.48 113.94 274.62 111.6C271.76 109.26 267.99 108.09 263.31 108.09C259.063 108.09 255.597 109.173 252.91 111.34C250.223 113.507 248.88 116.627 248.88 120.7C248.88 123.473 249.703 125.77 251.35 127.59C253.083 129.323 255.25 130.71 257.85 131.75C260.45 132.79 264.003 133.917 268.51 135.13C274.49 136.777 279.343 138.423 283.07 140.07C286.883 141.717 290.09 144.273 292.69 147.74C295.377 151.12 296.72 155.67 296.72 161.39C296.72 165.983 295.463 170.317 292.95 174.39C290.523 178.463 286.927 181.757 282.16 184.27C277.48 186.697 271.933 187.91 265.52 187.91ZM321.747 105.88C319.06 105.88 316.807 104.97 314.987 103.15C313.167 101.33 312.257 99.0767 312.257 96.39C312.257 93.7033 313.167 91.45 314.987 89.63C316.807 87.81 319.06 86.9 321.747 86.9C324.347 86.9 326.557 87.81 328.377 89.63C330.197 91.45 331.107 93.7033 331.107 96.39C331.107 99.0767 330.197 101.33 328.377 103.15C326.557 104.97 324.347 105.88 321.747 105.88ZM329.027 115.37V187H314.207V115.37H329.027ZM384.624 114.2C390.258 114.2 395.284 115.37 399.704 117.71C404.211 120.05 407.721 123.517 410.234 128.11C412.748 132.703 414.004 138.25 414.004 144.75V187H399.314V146.96C399.314 140.547 397.711 135.65 394.504 132.27C391.298 128.803 386.921 127.07 381.374 127.07C375.828 127.07 371.408 128.803 368.114 132.27C364.908 135.65 363.304 140.547 363.304 146.96V187H348.484V115.37H363.304V123.56C365.731 120.613 368.808 118.317 372.534 116.67C376.348 115.023 380.378 114.2 384.624 114.2ZM463.978 188.17C457.218 188.17 451.108 186.653 445.648 183.62C440.188 180.5 435.898 176.167 432.778 170.62C429.658 164.987 428.098 158.487 428.098 151.12C428.098 143.84 429.702 137.383 432.908 131.75C436.115 126.117 440.492 121.783 446.038 118.75C451.585 115.717 457.782 114.2 464.628 114.2C471.475 114.2 477.672 115.717 483.218 118.75C488.765 121.783 493.142 126.117 496.348 131.75C499.555 137.383 501.158 143.84 501.158 151.12C501.158 158.4 499.512 164.857 496.218 170.49C492.925 176.123 488.418 180.5 482.698 183.62C477.065 186.653 470.825 188.17 463.978 188.17ZM463.978 175.3C467.792 175.3 471.345 174.39 474.638 172.57C478.018 170.75 480.748 168.02 482.828 164.38C484.908 160.74 485.948 156.32 485.948 151.12C485.948 145.92 484.952 141.543 482.958 137.99C480.965 134.35 478.322 131.62 475.028 129.8C471.735 127.98 468.182 127.07 464.368 127.07C460.555 127.07 457.002 127.98 453.708 129.8C450.502 131.62 447.945 134.35 446.038 137.99C444.132 141.543 443.178 145.92 443.178 151.12C443.178 158.833 445.128 164.813 449.028 169.06C453.015 173.22 457.998 175.3 463.978 175.3ZM602.519 114.2C608.152 114.2 613.179 115.37 617.599 117.71C622.105 120.05 625.615 123.517 628.129 128.11C630.729 132.703 632.029 138.25 632.029 144.75V187H617.339V146.96C617.339 140.547 615.735 135.65 612.529 132.27C609.322 128.803 604.945 127.07 599.399 127.07C593.852 127.07 589.432 128.803 586.139 132.27C582.932 135.65 581.329 140.547 581.329 146.96V187H566.639V146.96C566.639 140.547 565.035 135.65 561.829 132.27C558.622 128.803 554.245 127.07 548.699 127.07C543.152 127.07 538.732 128.803 535.439 132.27C532.232 135.65 530.629 140.547 530.629 146.96V187H515.809V115.37H530.629V123.56C533.055 120.613 536.132 118.317 539.859 116.67C543.585 115.023 547.572 114.2 551.819 114.2C557.539 114.2 562.652 115.413 567.159 117.84C571.665 120.267 575.132 123.777 577.559 128.37C579.725 124.037 583.105 120.613 587.699 118.1C592.292 115.5 597.232 114.2 602.519 114.2ZM658.427 105.88C655.74 105.88 653.487 104.97 651.667 103.15C649.847 101.33 648.937 99.0767 648.937 96.39C648.937 93.7033 649.847 91.45 651.667 89.63C653.487 87.81 655.74 86.9 658.427 86.9C661.027 86.9 663.237 87.81 665.057 89.63C666.877 91.45 667.787 93.7033 667.787 96.39C667.787 99.0767 666.877 101.33 665.057 103.15C663.237 104.97 661.027 105.88 658.427 105.88ZM665.707 115.37V187H650.887V115.37H665.707ZM773.404 168.54H735.574L729.074 187H713.604L745.974 96.52H763.134L795.504 187H779.904L773.404 168.54ZM769.244 156.45L754.554 114.46L739.734 156.45H769.244ZM824.398 96.65V187H809.578V96.65H824.398Z" fill="url(#paint1_linear_1391_38)"/>
<defs>
<linearGradient id="paint0_linear_1391_38" x1="79.5" y1="220.5" x2="142" y2="121.5" gradientUnits="userSpaceOnUse">
<stop stop-color="#06B6D4"/>
<stop offset="1" stop-color="#153885"/>
</linearGradient>
<linearGradient id="paint1_linear_1391_38" x1="676.79" y1="141.5" x2="226.048" y2="137.22" gradientUnits="userSpaceOnUse">
<stop stop-color="#2563EB"/>
<stop offset="1" stop-color="#06B6D4"/>
</linearGradient>
</defs>
</svg>
